<svg width="80" height="80" viewBox="0 0 80 80" fill="none" xmlns="http://www.w3.org/2000/svg">
<path fill-rule="evenodd" clip-rule="evenodd" d="M24.0608 59.7717C24.0608 60.0779 24.3961 60.266 24.6574 60.1063L36.553 52.8365C36.8143 52.6768 37.1497 52.8649 37.1497 53.1711V64.4987C37.1497 64.6355 37.0784 64.7624 36.9616 64.8336L15.1043 78.1544C14.843 78.3137 14.5081 78.1256 14.5081 77.8195V31.655C14.5081 31.5182 14.5793 31.3913 14.6961 31.3202L23.4645 25.9759C23.7259 25.8166 24.0608 26.0047 24.0608 26.3108V59.7717ZM40.5608 62.6397C40.5608 62.6398 40.5607 62.6399 40.5606 62.64C40.5603 62.6403 40.5598 62.6401 40.5598 62.6397V47.0911C40.5598 46.7848 40.2245 46.5967 39.9632 46.7564L27.4716 54.3904C27.4713 54.3906 27.4709 54.3904 27.4709 54.3901C27.4709 54.3899 27.471 54.3898 27.4711 54.3897L39.9642 46.7554C40.2255 46.5957 40.5608 46.7838 40.5608 47.0901V62.6397ZM65.4924 47.2262C65.4924 47.363 65.4212 47.4899 65.3043 47.5611L57.2185 52.4884C56.9572 52.6477 56.6223 52.4596 56.6223 52.1536V17.9483C56.6223 17.6438 56.2904 17.4555 56.029 17.6117L44.5633 24.4649C44.3019 24.6211 43.97 24.4328 43.97 24.1283V13.7C43.97 13.5632 44.0412 13.4363 44.1581 13.3651L64.8962 0.726844C65.1575 0.567586 65.4924 0.755685 65.4924 1.06172V47.2262Z" fill="white"/>
<path d="M40.3319 0.296363L28.0271 7.54244C27.9075 7.61293 27.834 7.74146 27.834 7.88036V53.3506C27.834 53.6569 28.1693 53.8449 28.4306 53.6852L40.3264 46.4156C40.5877 46.2559 40.923 46.4439 40.923 46.7502V77.7501C40.923 78.0633 41.2721 78.2502 41.5327 78.0764L53.4012 70.1641C53.5103 70.0914 53.5758 69.9689 53.5758 69.8378V23.6181C53.5758 23.3136 53.2439 23.1253 52.9825 23.2815L41.5164 30.1348C41.255 30.291 40.923 30.1027 40.923 29.7982V0.63428C40.923 0.330896 40.5933 0.142415 40.3319 0.296363Z" fill="#FF530B"/>
</svg>
