<svg width="168" height="40" viewBox="0 0 168 40" fill="none" xmlns="http://www.w3.org/2000/svg">
<path fill-rule="evenodd" clip-rule="evenodd" d="M4.89209 28.7359C4.89209 28.866 5.03461 28.946 5.14567 28.8781L10.201 25.7886C10.3121 25.7207 10.4546 25.8007 10.4546 25.9308V30.7461C10.4546 30.8042 10.4243 30.8582 10.3747 30.8884L1.08592 36.5495C0.97486 36.6172 0.83252 36.5373 0.83252 36.4072V16.7868C0.83252 16.7287 0.862804 16.6747 0.912437 16.6445L4.63867 14.3731C4.74974 14.3054 4.89209 14.3853 4.89209 14.5154V28.7359ZM22.5015 23.4052C22.5015 23.4634 22.4712 23.5173 22.4215 23.5476L18.9843 25.6414C18.8733 25.7091 18.731 25.6291 18.731 25.4991V10.9616C18.731 10.8322 18.5899 10.7521 18.4788 10.8185L13.6052 13.731C13.4941 13.7974 13.353 13.7173 13.353 13.5879V9.15596C13.353 9.09782 13.3833 9.04389 13.433 9.01364L22.2481 3.64252C22.3591 3.57485 22.5015 3.65479 22.5015 3.78485V23.4052Z" fill="white"/>
<path d="M11.8077 3.45923L6.57819 6.53882C6.52732 6.56877 6.49609 6.6234 6.49609 6.68243V26.0073C6.49609 26.1374 6.63861 26.2174 6.74967 26.1495L11.8054 23.0599C11.9164 22.992 12.0589 23.072 12.0589 23.2021V36.3771C12.0589 36.5102 12.2073 36.5896 12.3181 36.5158L17.3622 33.153C17.4085 33.1221 17.4364 33.0701 17.4364 33.0143V13.371C17.4364 13.2415 17.2953 13.1615 17.1842 13.2279L12.3111 16.1406C12.2 16.207 12.0589 16.1269 12.0589 15.9975V3.60285C12.0589 3.47391 11.9188 3.3938 11.8077 3.45923Z" fill="#FF611F"/>
<path d="M42.9334 17.2667C42.1334 17.2667 41.4723 17.15 40.95 16.9167C40.4278 16.6722 40.0112 16.3389 39.7 15.9167C39.3889 15.4944 39.1556 15 39 14.4333C38.8445 13.8667 38.7389 13.2556 38.6834 12.6H37.9V17H34.25V5.53333H38.9667C40.7889 5.53333 42.1 5.85556 42.9 6.5C43.7112 7.13333 44.1167 7.99444 44.1167 9.08333C44.1167 9.73889 43.9389 10.3278 43.5834 10.85C43.2278 11.3611 42.6556 11.7889 41.8667 12.1333C41.9112 12.3778 41.95 12.5778 41.9834 12.7333C42.0167 12.8889 42.0667 13.0611 42.1334 13.25C42.2778 13.65 42.4556 13.9278 42.6667 14.0833C42.8889 14.2389 43.1889 14.3167 43.5667 14.3167C43.8112 14.3167 44.0556 14.2833 44.3 14.2167L44.5 16.95C44.2778 17.0389 44.0389 17.1111 43.7834 17.1667C43.5389 17.2333 43.2556 17.2667 42.9334 17.2667ZM37.9 10.3167H38.5334C39.3556 10.3167 39.9334 10.2278 40.2667 10.05C40.6112 9.86111 40.7834 9.54444 40.7834 9.1C40.7834 8.72222 40.6445 8.45 40.3667 8.28333C40.0889 8.10556 39.65 8.01667 39.05 8.01667H37.9V10.3167ZM51.0317 17.2667C49.8317 17.2667 48.7872 17.0222 47.8983 16.5333C47.0206 16.0444 46.3372 15.3667 45.8483 14.5C45.3595 13.6333 45.115 12.6333 45.115 11.5C45.115 10.2889 45.3706 9.21667 45.8817 8.28333C46.3928 7.35 47.1095 6.61667 48.0317 6.08333C48.9539 5.55 50.0261 5.28333 51.2483 5.28333C52.5817 5.28333 53.6428 5.55 54.4317 6.08333L53.9317 8.7C53.2317 8.4 52.5039 8.25 51.7483 8.25C50.8372 8.25 50.1206 8.52222 49.5983 9.06667C49.0761 9.61111 48.815 10.3667 48.815 11.3333C48.815 12.3111 49.0483 13.0722 49.515 13.6167C49.9928 14.1611 50.5983 14.4333 51.3317 14.4333C51.5983 14.4333 51.8206 14.4111 51.9983 14.3667V11.5167L54.8817 11.1833V16.4C54.2483 16.6889 53.6039 16.9056 52.9483 17.05C52.2928 17.1944 51.6539 17.2667 51.0317 17.2667ZM61.0358 17H56.7025V5.53333H61.3858C63.2192 5.53333 64.5636 5.78889 65.4192 6.3C66.2747 6.8 66.7025 7.49444 66.7025 8.38333C66.7025 9.53889 66.097 10.3333 64.8858 10.7667C66.4414 11.0667 67.2192 11.9833 67.2192 13.5167C67.2192 14.6944 66.6803 15.5722 65.6025 16.15C64.5358 16.7167 63.0136 17 61.0358 17ZM60.4192 10.0667H61.7358C62.1803 10.0667 62.5414 9.96667 62.8192 9.76667C63.097 9.56667 63.2358 9.3 63.2358 8.96667C63.2358 8.2 62.7136 7.81667 61.6692 7.81667H60.4192V10.0667ZM61.8358 14.65C62.3914 14.65 62.8192 14.5389 63.1192 14.3167C63.4192 14.0944 63.5692 13.7833 63.5692 13.3833C63.5692 12.95 63.4192 12.6167 63.1192 12.3833C62.8192 12.1389 62.3914 12.0167 61.8358 12.0167H60.4025V14.65H61.8358ZM71.9935 17V5.53333H75.5935V14.3667H79.6602L79.4935 17H71.9935ZM81.0957 17V5.53333H84.8624V17H81.0957ZM92.2947 17.2667C91.0947 17.2667 90.0503 17.0222 89.1614 16.5333C88.2836 16.0444 87.6003 15.3667 87.1114 14.5C86.6225 13.6333 86.378 12.6333 86.378 11.5C86.378 10.2889 86.6336 9.21667 87.1447 8.28333C87.6558 7.35 88.3725 6.61667 89.2947 6.08333C90.2169 5.55 91.2891 5.28333 92.5114 5.28333C93.8447 5.28333 94.9058 5.55 95.6947 6.08333L95.1947 8.7C94.4947 8.4 93.7669 8.25 93.0114 8.25C92.1003 8.25 91.3836 8.52222 90.8614 9.06667C90.3391 9.61111 90.078 10.3667 90.078 11.3333C90.078 12.3111 90.3114 13.0722 90.778 13.6167C91.2558 14.1611 91.8614 14.4333 92.5947 14.4333C92.8614 14.4333 93.0836 14.4111 93.2614 14.3667V11.5167L96.1447 11.1833V16.4C95.5114 16.6889 94.8669 16.9056 94.2114 17.05C93.5558 17.1944 92.9169 17.2667 92.2947 17.2667ZM97.9655 17V5.53333H101.716V9.85H105.266V5.53333H109.032V17H105.266V12.4833H101.716V17H97.9655ZM112.839 17V8.16667H110.256V5.53333H119.306V8.16667H116.722V17H112.839ZM120.516 17V5.53333H123.849L128.349 11.6167V5.53333H131.416V17H128.082L123.582 11.1667V17H120.516ZM133.41 17V5.53333H137.177V17H133.41ZM139.176 17V5.53333H142.509L147.009 11.6167V5.53333H150.076V17H146.742L142.242 11.1667V17H139.176ZM157.504 17.2667C156.304 17.2667 155.259 17.0222 154.37 16.5333C153.493 16.0444 152.809 15.3667 152.32 14.5C151.831 13.6333 151.587 12.6333 151.587 11.5C151.587 10.2889 151.843 9.21667 152.354 8.28333C152.865 7.35 153.581 6.61667 154.504 6.08333C155.426 5.55 156.498 5.28333 157.72 5.28333C159.054 5.28333 160.115 5.55 160.904 6.08333L160.404 8.7C159.704 8.4 158.976 8.25 158.22 8.25C157.309 8.25 156.593 8.52222 156.07 9.06667C155.548 9.61111 155.287 10.3667 155.287 11.3333C155.287 12.3111 155.52 13.0722 155.987 13.6167C156.465 14.1611 157.07 14.4333 157.804 14.4333C158.07 14.4333 158.293 14.4111 158.47 14.3667V11.5167L161.354 11.1833V16.4C160.72 16.6889 160.076 16.9056 159.42 17.05C158.765 17.1944 158.126 17.2667 157.504 17.2667ZM34.25 37V25.5333H37.5834L42.0834 31.6167V25.5333H45.15V37H41.8167L37.3167 31.1667V37H34.25ZM52.7946 37.2667C51.5835 37.2667 50.5168 37.0111 49.5946 36.5C48.6723 35.9889 47.9501 35.2833 47.4279 34.3833C46.9168 33.4833 46.6612 32.45 46.6612 31.2833C46.6612 30.1056 46.9168 29.0667 47.4279 28.1667C47.9501 27.2667 48.6723 26.5611 49.5946 26.05C50.5168 25.5389 51.5835 25.2833 52.7946 25.2833C54.0057 25.2833 55.0723 25.5389 55.9946 26.05C56.9168 26.55 57.6335 27.25 58.1446 28.15C58.6668 29.05 58.9279 30.0944 58.9279 31.2833C58.9279 32.45 58.6668 33.4833 58.1446 34.3833C57.6335 35.2833 56.9168 35.9889 55.9946 36.5C55.0723 37.0111 54.0057 37.2667 52.7946 37.2667ZM52.7946 34.2333C53.4946 34.2333 54.0668 33.9611 54.5112 33.4167C54.9668 32.8722 55.1946 32.1556 55.1946 31.2667C55.1946 30.6667 55.089 30.1389 54.8779 29.6833C54.6779 29.2278 54.3946 28.8722 54.0279 28.6167C53.6723 28.35 53.2557 28.2167 52.7779 28.2167C52.0779 28.2167 51.5057 28.5 51.0612 29.0667C50.6168 29.6222 50.3946 30.3556 50.3946 31.2667C50.3946 32.1556 50.6168 32.8722 51.0612 33.4167C51.5057 33.9611 52.0835 34.2333 52.7946 34.2333ZM60.446 37V25.5333H64.4293C66.096 25.5333 67.4516 25.7722 68.496 26.25C69.5516 26.7278 70.3238 27.3889 70.8127 28.2333C71.3127 29.0778 71.5627 30.0611 71.5627 31.1833C71.5627 33.0167 70.9571 34.4444 69.746 35.4667C68.546 36.4889 66.7182 37 64.2627 37H60.446ZM64.1293 34.0833H65.196C66.0849 34.0833 66.746 33.8167 67.1793 33.2833C67.6127 32.7389 67.8293 32.0278 67.8293 31.15C67.8293 30.3389 67.6182 29.6889 67.196 29.2C66.7849 28.7 66.1182 28.45 65.196 28.45H64.1293V34.0833ZM73.0801 37V25.5333H81.1301V28.0667H77.1301V30.1H80.7801V32.2H77.1301V34.3833H81.1301V37H73.0801Z" fill="white"/>
</svg>
