<svg width="169" height="42" viewBox="0 0 169 42" fill="none" xmlns="http://www.w3.org/2000/svg">
<path fill-rule="evenodd" clip-rule="evenodd" d="M20.6933 9.09646L20.6943 9.09587V17.0422L20.6933 17.0428V9.09646ZM12.1094 14.3277L7.14062 17.3558V41.8546L18.9199 34.676V28.3032L12.1094 32.4653V14.3277ZM27.2779 29.5825L27.2769 29.5831V13.108L27.2779 13.1074V29.5825ZM29.0522 28.5011V9.97974L22.4686 13.9148V8.01455L33.6693 1.1886V25.6874L29.0522 28.5011ZM13.8837 29.3015V29.3013L20.6933 25.1399V25.1401L13.8837 29.3015Z" fill="white"/>
<path d="M20.8887 0.972656L14.0781 4.9833V29.1231L20.8887 24.9611V41.8363L27.4723 37.4472V12.929L20.8887 16.864V0.972656Z" fill="#FF530B"/>
<path d="M56.1513 20.1234C56.6328 20.2716 57.0464 20.5987 57.3921 21.1049C57.7378 21.5988 57.9106 22.1667 57.9106 22.8087C57.9106 24.1791 57.4661 25.2038 56.5772 25.8828C55.6883 26.5495 54.392 26.8828 52.6883 26.8828H45.0585C44.9227 26.8828 44.8054 26.8334 44.7066 26.7347C44.6079 26.6359 44.5585 26.5186 44.5585 26.3828V14.4196C44.5585 14.2838 44.6079 14.1665 44.7066 14.0677C44.8054 13.969 44.9227 13.9196 45.0585 13.9196H52.5031C54.2562 13.9196 55.5463 14.2406 56.3735 14.8826C57.213 15.5122 57.6328 16.469 57.6328 17.753V17.8086C57.6328 18.4012 57.4723 18.9073 57.1513 19.3271C56.8303 19.7469 56.497 20.0123 56.1513 20.1234ZM52.6142 17.9197C52.6142 17.6974 52.5463 17.5061 52.4105 17.3456C52.287 17.1851 52.1018 17.1048 51.8549 17.1048H49.3734V18.7901H51.8549C52.1018 18.7901 52.287 18.7036 52.4105 18.5308C52.5463 18.3456 52.6142 18.1419 52.6142 17.9197ZM52.0586 23.6976C52.3426 23.6976 52.5525 23.605 52.6883 23.4198C52.8364 23.2222 52.9105 23.0062 52.9105 22.7716V22.7531C52.9105 22.5185 52.8302 22.3148 52.6697 22.142C52.5216 21.9691 52.3179 21.8827 52.0586 21.8827H49.3734V23.6976H52.0586ZM69.1073 23.0864H72.4592C72.595 23.0864 72.7123 23.1358 72.8111 23.2346C72.9098 23.3334 72.9592 23.4506 72.9592 23.5865V26.3828C72.9592 26.5186 72.9098 26.6359 72.8111 26.7347C72.7123 26.8334 72.595 26.8828 72.4592 26.8828H60.7182C60.5824 26.8828 60.4651 26.8334 60.3664 26.7347C60.2676 26.6359 60.2182 26.5186 60.2182 26.3828V23.5865C60.2182 23.4506 60.2676 23.3334 60.3664 23.2346C60.4651 23.1358 60.5824 23.0864 60.7182 23.0864H64.1072V17.716H60.7182C60.5824 17.716 60.4651 17.6666 60.3664 17.5678C60.2676 17.469 60.2182 17.3518 60.2182 17.216V14.4196C60.2182 14.2838 60.2676 14.1665 60.3664 14.0677C60.4651 13.969 60.5824 13.9196 60.7182 13.9196H72.4592C72.595 13.9196 72.7123 13.969 72.8111 14.0677C72.9098 14.1665 72.9592 14.2838 72.9592 14.4196V17.216C72.9592 17.3518 72.9098 17.469 72.8111 17.5678C72.7123 17.6666 72.595 17.716 72.4592 17.716H69.1073V23.0864ZM88.7115 13.9196C88.8473 13.9196 88.9646 13.969 89.0634 14.0677C89.1622 14.1665 89.2116 14.2838 89.2116 14.4196V17.4011C89.2116 17.5369 89.1622 17.6542 89.0634 17.753C88.9646 17.8518 88.8473 17.9012 88.7115 17.9012H84.73V26.3828C84.73 26.5186 84.6806 26.6359 84.5818 26.7347C84.4831 26.8334 84.3658 26.8828 84.23 26.8828H80.4151C80.2793 26.8828 80.162 26.8334 80.0632 26.7347C79.9645 26.6359 79.9151 26.5186 79.9151 26.3828V17.9012H75.9335C75.7977 17.9012 75.6804 17.8518 75.5817 17.753C75.4829 17.6542 75.4335 17.5369 75.4335 17.4011V14.4196C75.4335 14.2838 75.4829 14.1665 75.5817 14.0677C75.6804 13.969 75.7977 13.9196 75.9335 13.9196H88.7115ZM104.094 23.0864C104.229 23.0864 104.347 23.1358 104.445 23.2346C104.544 23.3334 104.594 23.4506 104.594 23.5865V26.3828C104.594 26.5186 104.544 26.6359 104.445 26.7347C104.347 26.8334 104.229 26.8828 104.094 26.8828H93.2785C93.1427 26.8828 93.0254 26.8334 92.9266 26.7347C92.8278 26.6359 92.7785 26.5186 92.7785 26.3828V14.4196C92.7785 14.2838 92.8278 14.1665 92.9266 14.0677C93.0254 13.969 93.1427 13.9196 93.2785 13.9196H97.2786C97.4144 13.9196 97.5316 13.969 97.6304 14.0677C97.7292 14.1665 97.7786 14.2838 97.7786 14.4196V23.0864H104.094ZM116.309 23.0864H119.661C119.796 23.0864 119.914 23.1358 120.013 23.2346C120.111 23.3334 120.161 23.4506 120.161 23.5865V26.3828C120.161 26.5186 120.111 26.6359 120.013 26.7347C119.914 26.8334 119.796 26.8828 119.661 26.8828H107.92C107.784 26.8828 107.667 26.8334 107.568 26.7347C107.469 26.6359 107.42 26.5186 107.42 26.3828V23.5865C107.42 23.4506 107.469 23.3334 107.568 23.2346C107.667 23.1358 107.784 23.0864 107.92 23.0864H111.309V17.716H107.92C107.784 17.716 107.667 17.6666 107.568 17.5678C107.469 17.469 107.42 17.3518 107.42 17.216V14.4196C107.42 14.2838 107.469 14.1665 107.568 14.0677C107.667 13.969 107.784 13.9196 107.92 13.9196H119.661C119.796 13.9196 119.914 13.969 120.013 14.0677C120.111 14.1665 120.161 14.2838 120.161 14.4196V17.216C120.161 17.3518 120.111 17.469 120.013 17.5678C119.914 17.6666 119.796 17.716 119.661 17.716H116.309V23.0864ZM136.191 19.0678C136.327 19.0678 136.444 19.1172 136.543 19.216C136.641 19.3148 136.691 19.432 136.691 19.5679V21.5309C136.691 23.4074 136.049 24.8025 134.765 25.7161C133.493 26.6174 131.808 27.068 129.709 27.068C127.61 27.068 125.919 26.6174 124.635 25.7161C123.363 24.8025 122.728 23.3951 122.728 21.4938V19.3086C122.728 18.0493 123.036 17.0061 123.653 16.1789C124.271 15.3394 125.104 14.7221 126.154 14.327C127.203 13.9319 128.388 13.7344 129.709 13.7344C131.289 13.7344 132.592 13.9937 133.617 14.5122C134.641 15.0307 135.382 15.6172 135.839 16.2715C136.308 16.9258 136.543 17.4567 136.543 17.8641C136.543 17.9752 136.499 18.074 136.413 18.1604C136.339 18.2345 136.246 18.2715 136.135 18.2715H131.95C131.703 18.2715 131.524 18.2036 131.413 18.0678C131.03 17.5863 130.462 17.3456 129.709 17.3456C129.141 17.3456 128.666 17.4752 128.283 17.7345C127.913 17.9937 127.728 18.3271 127.728 18.7345V21.8827C127.728 22.3766 127.913 22.7654 128.283 23.0494C128.654 23.321 129.129 23.4568 129.709 23.4568C130.475 23.4568 131.036 23.3272 131.394 23.0679C131.765 22.7963 131.956 22.4815 131.968 22.1235H130.82C130.684 22.1235 130.567 22.0741 130.468 21.9753C130.37 21.8765 130.32 21.7593 130.32 21.6235V19.5679C130.32 19.432 130.37 19.3148 130.468 19.216C130.567 19.1172 130.684 19.0678 130.82 19.0678H136.191ZM151.425 13.9196C151.56 13.9196 151.678 13.969 151.776 14.0677C151.875 14.1665 151.925 14.2838 151.925 14.4196V26.3828C151.925 26.5186 151.875 26.6359 151.776 26.7347C151.678 26.8334 151.56 26.8828 151.425 26.8828H147.61C147.474 26.8828 147.357 26.8334 147.258 26.7347C147.159 26.6359 147.11 26.5186 147.11 26.3828V22.4383H143.406V26.3828C143.406 26.5186 143.357 26.6359 143.258 26.7347C143.159 26.8334 143.042 26.8828 142.906 26.8828H139.091C138.955 26.8828 138.838 26.8396 138.739 26.7532C138.64 26.6544 138.591 26.531 138.591 26.3828V14.4196C138.591 14.2838 138.64 14.1665 138.739 14.0677C138.838 13.969 138.955 13.9196 139.091 13.9196H142.906C143.042 13.9196 143.159 13.969 143.258 14.0677C143.357 14.1665 143.406 14.2838 143.406 14.4196V18.216H147.11V14.4196C147.11 14.2838 147.159 14.1665 147.258 14.0677C147.357 13.969 147.474 13.9196 147.61 13.9196H151.425ZM167.381 13.9196C167.516 13.9196 167.634 13.969 167.732 14.0677C167.831 14.1665 167.881 14.2838 167.881 14.4196V17.4011C167.881 17.5369 167.831 17.6542 167.732 17.753C167.634 17.8518 167.516 17.9012 167.381 17.9012H163.399V26.3828C163.399 26.5186 163.35 26.6359 163.251 26.7347C163.152 26.8334 163.035 26.8828 162.899 26.8828H159.084C158.948 26.8828 158.831 26.8334 158.732 26.7347C158.634 26.6359 158.584 26.5186 158.584 26.3828V17.9012H154.603C154.467 17.9012 154.349 17.8518 154.251 17.753C154.152 17.6542 154.103 17.5369 154.103 17.4011V14.4196C154.103 14.2838 154.152 14.1665 154.251 14.0677C154.349 13.969 154.467 13.9196 154.603 13.9196H167.381Z" fill="white"/>
</svg>
