<svg width="32" height="32" viewBox="0 0 32 32" fill="none" xmlns="http://www.w3.org/2000/svg">
<g clip-path="url(#clip0_4002_420)">
<rect width="32" height="32" rx="16" fill="white"/>
<path fill-rule="evenodd" clip-rule="evenodd" d="M31.5211 19.8729C29.3839 28.4453 20.7014 33.6624 12.128 31.5247C3.55811 29.3874 -1.65895 20.7045 0.479281 12.1326C2.61551 3.55918 11.2979 -1.65838 19.8688 0.478849C28.4418 2.61608 33.6583 11.3 31.5211 19.8729ZM23.0552 13.7223C23.3737 11.593 21.7525 10.4484 19.5358 9.68483L20.2549 6.80052L18.4992 6.36298L17.7991 9.17128C17.3376 9.05626 16.8635 8.94775 16.3925 8.84024L17.0976 6.01344L15.3429 5.57589L14.6233 8.4592C14.2412 8.37219 13.8662 8.28618 13.5022 8.19567L13.5042 8.18667L11.0829 7.58211L10.6159 9.45731C10.6159 9.45731 11.9185 9.75584 11.891 9.77434C12.6021 9.95186 12.7306 10.4224 12.7091 10.7954L11.89 14.0813C11.939 14.0938 12.0025 14.1118 12.0725 14.1398C12.014 14.1253 11.9515 14.1093 11.887 14.0938L10.7389 18.6968C10.6519 18.9128 10.4313 19.2368 9.93429 19.1138C9.95179 19.1393 8.65815 18.7953 8.65815 18.7953L7.78656 20.805L10.0713 21.3746C10.4963 21.4811 10.9129 21.5926 11.3229 21.6976L10.5964 24.6149L12.35 25.0525L13.0696 22.1662C13.5487 22.2962 14.0137 22.4162 14.4688 22.5292L13.7517 25.402L15.5074 25.8396L16.234 22.9277C19.2278 23.4943 21.479 23.2658 22.4266 20.558C23.1902 18.3778 22.3886 17.1201 20.8134 16.3C21.9606 16.0355 22.8247 15.2809 23.0552 13.7223ZM19.0438 19.3474C18.5012 21.5276 14.8303 20.349 13.6402 20.0534L14.6043 16.1885C15.7944 16.4856 19.6108 17.0736 19.0438 19.3474ZM19.5868 13.6908C19.0918 15.674 16.0364 14.6664 15.0453 14.4193L15.9194 10.914C16.9105 11.161 20.1024 11.622 19.5868 13.6908Z" fill="#FAAF00"/>
</g>
<defs>
<clipPath id="clip0_4002_420">
<rect width="32" height="32" rx="16" fill="white"/>
</clipPath>
</defs>
</svg>
