<svg width="32" height="32" viewBox="0 0 32 32" fill="none" xmlns="http://www.w3.org/2000/svg">
<g clip-path="url(#clip0_4002_430)">
<rect width="32" height="32" rx="16" fill="white"/>
<path fill-rule="evenodd" clip-rule="evenodd" d="M30.3781 8.99049C34.2511 16.9311 30.9534 26.5086 23.0117 30.3819C15.073 34.2533 5.49523 30.9552 1.62329 23.0143C-2.25115 15.0736 1.04619 5.49576 8.98568 1.62369C16.9267 -2.24966 26.5047 1.04947 30.3781 8.99049ZM19.9393 9.72059C18.8146 7.88476 16.837 8.05 14.648 8.88995L13.3449 6.21823L11.7187 7.01158L12.9876 9.61287C12.5601 9.82144 12.1272 10.043 11.6972 10.2635L10.4203 7.64479L8.79489 8.4375L10.097 11.1088C9.74843 11.2877 9.40584 11.4629 9.0688 11.6275L9.06454 11.6194L6.82114 12.7126L7.66872 14.4493C7.66872 14.4493 8.85849 13.8407 8.84932 13.8725C9.50814 13.5514 9.90905 13.8293 10.1324 14.1289L11.617 17.1725C11.6626 17.1506 11.7228 17.1235 11.7944 17.1C11.7403 17.1265 11.6821 17.1544 11.6227 17.184L13.702 21.4481C13.7742 21.6695 13.8135 22.0595 13.3537 22.2847C13.3835 22.293 12.1714 22.861 12.1714 22.861L12.7955 24.9608L14.9118 23.9285C15.3059 23.7369 15.6967 23.5545 16.0783 23.3714L17.3969 26.0732L19.0216 25.2812L17.7175 22.6076C18.168 22.3993 18.6014 22.1923 19.0227 21.9863L20.32 24.648L21.9461 23.8546L20.6311 21.157C23.2886 19.6666 24.8663 18.0445 23.8517 15.3611C23.0352 13.2001 21.6127 12.752 19.8789 13.1362C20.5877 12.1962 20.7646 11.0628 19.9393 9.72059ZM20.4821 16.6082C21.4679 18.6271 17.8982 20.0838 16.7965 20.6224L15.0508 17.042C16.1534 16.5045 19.4549 14.5019 20.4821 16.6082ZM17.2621 11.9259C18.1576 13.7633 15.1694 14.9554 14.2514 15.4032L12.6678 12.1561C13.5858 11.7083 16.3273 10.0098 17.2621 11.9259Z" fill="#B553E9"/>
<path d="M22.3757 11.5V5.55H24.9597C25.3337 5.55 25.6595 5.61517 25.9372 5.7455C26.2149 5.87583 26.4302 6.06 26.5832 6.298C26.7362 6.536 26.8127 6.8165 26.8127 7.1395V7.2415C26.8127 7.5985 26.7277 7.8875 26.5577 8.1085C26.3877 8.3295 26.178 8.491 25.9287 8.593V8.746C26.1554 8.75733 26.331 8.83667 26.4557 8.984C26.5804 9.12567 26.6427 9.3155 26.6427 9.5535V11.5H25.5207V9.715C25.5207 9.579 25.4839 9.4685 25.4102 9.3835C25.3422 9.2985 25.226 9.256 25.0617 9.256H23.4977V11.5H22.3757ZM23.4977 8.236H24.8407C25.107 8.236 25.3139 8.16517 25.4612 8.0235C25.6142 7.87617 25.6907 7.6835 25.6907 7.4455V7.3605C25.6907 7.1225 25.617 6.93267 25.4697 6.791C25.3224 6.64367 25.1127 6.57 24.8407 6.57H23.4977V8.236Z" fill="white"/>
<path d="M22.3757 11.5H22.2257V11.65H22.3757V11.5ZM22.3757 5.55V5.4H22.2257V5.55H22.3757ZM25.9372 5.7455L25.8735 5.88129L25.9372 5.7455ZM26.5832 6.298L26.7094 6.21689V6.21689L26.5832 6.298ZM26.5577 8.1085L26.6766 8.19996L26.5577 8.1085ZM25.9287 8.593L25.8719 8.45417L25.7787 8.4923V8.593H25.9287ZM25.9287 8.746H25.7787V8.88869L25.9212 8.89581L25.9287 8.746ZM26.4557 8.984L26.3412 9.08091L26.3431 9.08309L26.4557 8.984ZM26.6427 11.5V11.65H26.7927V11.5H26.6427ZM25.5207 11.5H25.3707V11.65H25.5207V11.5ZM25.4102 9.3835L25.293 9.47728L25.2968 9.48174L25.4102 9.3835ZM23.4977 9.256V9.106H23.3477V9.256H23.4977ZM23.4977 11.5V11.65H23.6477V11.5H23.4977ZM23.4977 8.236H23.3477V8.386H23.4977V8.236ZM25.4612 8.0235L25.5652 8.13162L25.5652 8.13155L25.4612 8.0235ZM25.4697 6.791L25.3636 6.89709L25.3657 6.89912L25.4697 6.791ZM23.4977 6.57V6.42H23.3477V6.57H23.4977ZM22.5257 11.5V5.55H22.2257V11.5H22.5257ZM22.3757 5.7H24.9597V5.4H22.3757V5.7ZM24.9597 5.7C25.3164 5.7 25.6196 5.76214 25.8735 5.88129L26.0009 5.60971C25.6994 5.4682 25.351 5.4 24.9597 5.4V5.7ZM25.8735 5.88129C26.1278 6.00068 26.3206 6.16684 26.457 6.37911L26.7094 6.21689C26.5398 5.95316 26.3019 5.75099 26.0009 5.60971L25.8735 5.88129ZM26.457 6.37911C26.5924 6.58963 26.6627 6.84108 26.6627 7.1395H26.9627C26.9627 6.79192 26.88 6.48237 26.7094 6.21689L26.457 6.37911ZM26.6627 7.1395V7.2415H26.9627V7.1395H26.6627ZM26.6627 7.2415C26.6627 7.57479 26.5836 7.82883 26.4388 8.01704L26.6766 8.19996C26.8718 7.94617 26.9627 7.62221 26.9627 7.2415H26.6627ZM26.4388 8.01704C26.2844 8.21781 26.0958 8.36256 25.8719 8.45417L25.9855 8.73183C26.2602 8.61944 26.491 8.44119 26.6766 8.19996L26.4388 8.01704ZM25.7787 8.593V8.746H26.0787V8.593H25.7787ZM25.9212 8.89581C26.1144 8.90547 26.2481 8.97084 26.3412 9.08089L26.5702 8.88711C26.414 8.70249 26.1964 8.6092 25.9362 8.59619L25.9212 8.89581ZM26.3431 9.08309C26.4379 9.19079 26.4927 9.34213 26.4927 9.5535H26.7927C26.7927 9.28887 26.7229 9.06054 26.5683 8.88491L26.3431 9.08309ZM26.4927 9.5535V11.5H26.7927V9.5535H26.4927ZM26.6427 11.35H25.5207V11.65H26.6427V11.35ZM25.6707 11.5V9.715H25.3707V11.5H25.6707ZM25.6707 9.715C25.6707 9.5508 25.6256 9.40296 25.5236 9.28526L25.2968 9.48174C25.3422 9.53404 25.3707 9.6072 25.3707 9.715H25.6707ZM25.5273 9.2898C25.4188 9.15409 25.2479 9.106 25.0617 9.106V9.406C25.2042 9.406 25.2656 9.44291 25.2931 9.4772L25.5273 9.2898ZM25.0617 9.106H23.4977V9.406H25.0617V9.106ZM23.3477 9.256V11.5H23.6477V9.256H23.3477ZM23.4977 11.35H22.3757V11.65H23.4977V11.35ZM23.4977 8.386H24.8407V8.086H23.4977V8.386ZM24.8407 8.386C25.1336 8.386 25.3822 8.30755 25.5652 8.13162L25.3572 7.91537C25.2455 8.02278 25.0804 8.086 24.8407 8.086V8.386ZM25.5652 8.13155C25.7513 7.9524 25.8407 7.71886 25.8407 7.4455H25.5407C25.5407 7.64814 25.4771 7.79993 25.3572 7.91545L25.5652 8.13155ZM25.8407 7.4455V7.3605H25.5407V7.4455H25.8407ZM25.8407 7.3605C25.8407 7.08899 25.7553 6.85751 25.5737 6.68287L25.3657 6.89912C25.4788 7.00783 25.5407 7.15601 25.5407 7.3605H25.8407ZM25.5758 6.68493C25.3925 6.50164 25.1398 6.42 24.8407 6.42V6.72C25.0856 6.72 25.2523 6.7857 25.3636 6.89707L25.5758 6.68493ZM24.8407 6.42H23.4977V6.72H24.8407V6.42ZM23.3477 6.57V8.236H23.6477V6.57H23.3477Z" fill="white"/>
</g>
<defs>
<clipPath id="clip0_4002_430">
<rect width="32" height="32" rx="16" fill="white"/>
</clipPath>
</defs>
</svg>
