<svg width="32" height="32" viewBox="0 0 32 32" fill="none" xmlns="http://www.w3.org/2000/svg">
<rect width="32" height="32" rx="16" fill="white"/>
<path fill-rule="evenodd" clip-rule="evenodd" d="M30.378 8.99062C34.251 16.9312 30.9533 26.5087 23.0116 30.382C15.0729 34.2534 5.49511 30.9554 1.62317 23.0145C-2.25127 15.0737 1.04607 5.49588 8.98555 1.62381C16.9266 -2.24954 26.5046 1.0496 30.378 8.99062ZM19.9391 9.72072C18.8145 7.88488 16.8369 8.05012 14.6479 8.89007L13.3448 6.21835L11.7186 7.01171L12.9874 9.61299C12.5599 9.82156 12.1271 10.0432 11.6971 10.2636L10.4202 7.64491L8.79477 8.43762L10.0969 11.1089C9.7483 11.2878 9.40572 11.463 9.06867 11.6277L9.06442 11.6195L6.82102 12.7127L7.6686 14.4494C7.6686 14.4494 8.85837 13.8408 8.84919 13.8726C9.50802 13.5516 9.90892 13.8294 10.1322 14.129L11.6169 17.1726C11.6625 17.1507 11.7227 17.1236 11.7943 17.1001C11.7402 17.1266 11.682 17.1545 11.6226 17.1841L13.7019 21.4482C13.7741 21.6696 13.8134 22.0596 13.3536 22.2849C13.3834 22.2931 12.1713 22.8611 12.1713 22.8611L12.7954 24.9609L14.9117 23.9286C15.3058 23.737 15.6966 23.5547 16.0782 23.3715L17.3968 26.0734L19.0214 25.2813L17.7174 22.6077C18.1679 22.3994 18.6013 22.1924 19.0225 21.9865L20.3198 24.6481L21.946 23.8547L20.6309 21.1571C23.2885 19.6667 24.8662 18.0446 23.8515 15.3612C23.0351 13.2002 21.6126 12.7521 19.8788 13.1364C20.5875 12.1964 20.7644 11.0629 19.9391 9.72072ZM20.4819 16.6083C21.4677 18.6272 17.8981 20.0839 16.7964 20.6225L15.0506 17.0421C16.1533 16.5047 19.4548 14.502 20.4819 16.6083ZM17.262 11.926C18.1575 13.7634 15.1693 14.9555 14.2513 15.4033L12.6677 12.1562C13.5857 11.7084 16.3271 10.0099 17.262 11.926Z" fill="#00C975"/>
<path d="M23.9431 10.5V9.293H21.0191V8.035L23.0761 4.55H25.0311V8.324H26.0171V9.293H25.0311V10.5H23.9431ZM22.0561 8.324H23.9431V5.247H23.7901L22.0561 8.188V8.324Z" fill="white"/>
<path d="M23.9431 10.5H23.7931V10.65H23.9431V10.5ZM23.9431 9.293H24.0931V9.143H23.9431V9.293ZM21.0191 9.293H20.8691V9.443H21.0191V9.293ZM21.0191 8.035L20.8899 7.95875L20.8691 7.99403V8.035H21.0191ZM23.0761 4.55V4.4H22.9905L22.9469 4.47375L23.0761 4.55ZM25.0311 4.55H25.1811V4.4H25.0311V4.55ZM25.0311 8.324H24.8811V8.474H25.0311V8.324ZM26.0171 8.324H26.1671V8.174H26.0171V8.324ZM26.0171 9.293V9.443H26.1671V9.293H26.0171ZM25.0311 9.293V9.143H24.8811V9.293H25.0311ZM25.0311 10.5V10.65H25.1811V10.5H25.0311ZM22.0561 8.324H21.9061V8.474H22.0561V8.324ZM23.9431 8.324V8.474H24.0931V8.324H23.9431ZM23.9431 5.247H24.0931V5.097H23.9431V5.247ZM23.7901 5.247V5.097H23.7044L23.6609 5.17082L23.7901 5.247ZM22.0561 8.188L21.9269 8.11182L21.9061 8.14707V8.188H22.0561ZM24.0931 10.5V9.293H23.7931V10.5H24.0931ZM23.9431 9.143H21.0191V9.443H23.9431V9.143ZM21.1691 9.293V8.035H20.8691V9.293H21.1691ZM21.1483 8.11125L23.2053 4.62625L22.9469 4.47375L20.8899 7.95875L21.1483 8.11125ZM23.0761 4.7H25.0311V4.4H23.0761V4.7ZM24.8811 4.55V8.324H25.1811V4.55H24.8811ZM25.0311 8.474H26.0171V8.174H25.0311V8.474ZM25.8671 8.324V9.293H26.1671V8.324H25.8671ZM26.0171 9.143H25.0311V9.443H26.0171V9.143ZM24.8811 9.293V10.5H25.1811V9.293H24.8811ZM25.0311 10.35H23.9431V10.65H25.0311V10.35ZM22.0561 8.474H23.9431V8.174H22.0561V8.474ZM24.0931 8.324V5.247H23.7931V8.324H24.0931ZM23.9431 5.097H23.7901V5.397H23.9431V5.097ZM23.6609 5.17082L21.9269 8.11182L22.1853 8.26418L23.9193 5.32318L23.6609 5.17082ZM21.9061 8.188V8.324H22.2061V8.188H21.9061Z" fill="white"/>
</svg>
